<svg version="1.2" xmlns="http://www.w3.org/2000/svg" viewBox="0 0 7080 1192" width="297" height="50">
	<title>shutterstock_2470700931-ai</title>
	<style>
		.s0 { fill: #000000 } 
	</style>
	<g id="_Artboards_">
	</g>
	<g id="Layer 1">
		<g id="&lt;Group&gt;">
			<g id="&lt;Group&gt;">
				<path id="&lt;Path&gt;" class="s0" d="m979.1 1160.4l-306.1-154.1c-13.9-7-30.5-6.4-43.9 1.7l-293.2 177.5c-32.9 19.9-74.2-7.6-68.3-45.7l52-338.7c2.3-15.5-3.4-31.1-15.2-41.3l-259.4-224c-29.2-25.1-15.7-72.9 22.3-79.1l338.2-55.2c15.5-2.6 28.5-12.8 34.5-27.2l132.9-315.9c14.9-35.5 64.5-37.5 82.2-3.2l157 304.6c7.2 13.8 21 23.1 36.6 24.4l341.5 28.7c38.3 3.2 55.5 49.8 28.4 77.2l-241.1 243.5c-11 11.1-15.5 27-12 42.3l78.2 333.6c8.8 37.5-30.2 68.2-64.6 50.9z"/>
				<path id="&lt;Path&gt;" class="s0" d="m2437.1 1160.4l-306.1-154.1c-14-7-30.5-6.4-43.9 1.7l-293.2 177.5c-32.9 19.9-74.2-7.6-68.3-45.7l51.9-338.7c2.4-15.5-3.3-31.1-15.2-41.3l-259.4-224c-29.1-25.1-15.6-72.9 22.4-79.1l338.2-55.2c15.4-2.6 28.5-12.8 34.5-27.2l132.9-315.9c14.9-35.5 64.5-37.5 82.2-3.2l157 304.6c7.2 13.8 21 23.1 36.5 24.4l341.6 28.7c38.3 3.2 55.5 49.8 28.4 77.2l-241.2 243.5c-11 11.1-15.5 27-11.9 42.3l78.2 333.6c8.8 37.5-30.2 68.2-64.6 50.9z"/>
				<path id="&lt;Path&gt;" class="s0" d="m3895.1 1160.4l-306.1-154.1c-14-7-30.6-6.4-43.9 1.7l-293.2 177.5c-32.9 19.9-74.2-7.6-68.4-45.7l52-338.7c2.4-15.5-3.4-31.1-15.2-41.3l-259.4-224c-29.1-25.1-15.6-72.9 22.4-79.1l338.2-55.2c15.4-2.6 28.5-12.8 34.5-27.2l132.9-315.9c14.9-35.5 64.5-37.5 82.1-3.2l157.1 304.6c7.2 13.8 21 23.1 36.5 24.4l341.5 28.7c38.4 3.2 55.6 49.8 28.5 77.2l-241.2 243.5c-11 11.1-15.5 27-11.9 42.3l78.2 333.6c8.8 37.5-30.2 68.2-64.6 50.9z"/>
				<path id="&lt;Path&gt;" class="s0" d="m5353.1 1160.4l-306.1-154.1c-14-7-30.6-6.4-43.9 1.7l-293.2 177.5c-33 19.9-74.2-7.6-68.4-45.7l52-338.7c2.4-15.5-3.4-31.1-15.2-41.3l-259.4-224c-29.1-25.1-15.7-72.9 22.4-79.1l338.2-55.2c15.4-2.6 28.4-12.8 34.5-27.2l132.9-315.9c14.9-35.5 64.5-37.5 82.1-3.2l157.1 304.6c7.1 13.8 20.9 23.1 36.5 24.4l341.5 28.7c38.4 3.2 55.6 49.8 28.5 77.2l-241.2 243.5c-11 11.1-15.5 27-11.9 42.3l78.2 333.6c8.7 37.5-30.2 68.2-64.6 50.9z"/>
				<path id="&lt;Path&gt;" class="s0" d="m6811.1 1160.4l-306.2-154.1c-13.9-7-30.5-6.4-43.9 1.7l-293.1 177.5c-33 19.9-74.2-7.6-68.4-45.7l52-338.7c2.3-15.5-3.4-31.1-15.2-41.3l-259.4-224c-29.2-25.1-15.7-72.9 22.3-79.1l338.3-55.2c15.4-2.6 28.4-12.8 34.5-27.2l132.8-315.9c15-35.5 64.5-37.5 82.2-3.2l157.1 304.6c7.1 13.8 20.9 23.1 36.5 24.4l341.5 28.7c38.4 3.2 55.5 49.8 28.4 77.2l-241.1 243.5c-11 11.1-15.5 27-12 42.3l78.2 333.6c8.8 37.5-30.1 68.2-64.5 50.9z"/>
			</g>
		</g>
	</g>
</svg>